<?xml version="1.0" encoding="utf-8"?>
<!-- Generator: Adobe Illustrator 18.1.0, SVG Export Plug-In . SVG Version: 6.00 Build 0)  -->
<svg version="1.1" id="Слой_1" xmlns="http://www.w3.org/2000/svg" xmlns:xlink="http://www.w3.org/1999/xlink" x="0px" y="0px"
	 viewBox="0 0 300 300" enable-background="new 0 0 300 300" xml:space="preserve">
<g id="XMLID_1_">
	<g id="XMLID_14_">
		<g id="XMLID_18_">
			<polygon id="XMLID_23_" points="123,100.3 120.3,97.5 93.7,123.9 96.4,126.6 95.5,127.5 97.2,129.1 98,128.3 124.6,101.9 
				125.5,101.1 123.8,99.4 			"/>
			<polygon id="XMLID_22_" points="99.6,129.8 98.7,130.7 100.4,132.4 101.2,131.5 127.8,105.1 128.7,104.3 127,102.6 126.2,103.5 
							"/>
			<path id="XMLID_19_" d="M129.4,106.7l-26.6,26.4l-0.9,0.9l1.7,1.7l0.9-0.9l13.5,13.6l2.4-2.4l-2.4-4.5l19.6-19.4l4.5,2.5l2.4-2.4
				L131,108.4l0.9-0.8l-1.7-1.7L129.4,106.7z M125.9,129.8c-1.8,1.8-4.7,1.8-6.5,0c-1.8-1.8-1.8-4.7,0-6.5c1.8-1.8,4.7-1.8,6.5,0
				C127.7,125,127.7,128,125.9,129.8z"/>
		</g>
		<path id="XMLID_15_" d="M182.5,167.4l-0.9-1l-2.8,2.7l0.9,1l-0.1,0.1c-0.9,0.9-1.9,1.5-3.1,2l-44.1-42.7l-6.9,6.8l42.4,44.4
			c-0.5,1.1-1.1,2.2-2,3.1l-0.1,0.1l-0.9-1l-2.8,2.7l0.9,1l-1.6,1.6l14.2,14.3l1.6-1.6l0.9,0.9l2.8-2.7l-0.9-0.9l0.1-0.1
			c1-1,2.2-1.7,3.5-2.1c1.8-0.6,3.5-1.6,4.9-3c1.4-1.4,2.4-3.1,3-4.9c0.4-1.3,1.2-2.5,2.2-3.5l0.1-0.1l0.9,0.9l2.8-2.7l-0.9-0.9
			l1.6-1.6L184,165.9L182.5,167.4z M186.3,190.7c-3.4,3.3-8.8,3.3-12.2-0.1c-3.3-3.4-3.3-8.8,0.1-12.2c3.4-3.3,8.8-3.3,12.2,0.1
			C189.7,181.9,189.7,187.3,186.3,190.7z"/>
	</g>
	<g id="XMLID_2_">
		<g id="XMLID_8_">
			<polygon id="XMLID_13_" points="177,100.3 179.7,97.5 206.3,123.9 203.6,126.6 204.5,127.5 202.8,129.1 202,128.3 175.4,101.9 
				174.5,101.1 176.2,99.4 			"/>
			<polygon id="XMLID_12_" points="200.4,129.8 201.3,130.7 199.6,132.4 198.8,131.5 172.2,105.1 171.3,104.3 173,102.6 
				173.8,103.5 			"/>
			<path id="XMLID_9_" d="M169.8,105.9l-1.7,1.7l0.9,0.8L155.5,122l2.4,2.4l4.5-2.5l19.6,19.4l-2.4,4.5l2.4,2.4l13.5-13.6l0.9,0.9
				l1.7-1.7l-0.9-0.9l-26.6-26.4L169.8,105.9z M174.1,123.2c1.8-1.8,4.7-1.8,6.5,0c1.8,1.8,1.8,4.7,0,6.5c-1.8,1.8-4.7,1.8-6.5,0
				C172.3,128,172.3,125,174.1,123.2z"/>
		</g>
		<path id="XMLID_3_" d="M167.6,129.5l-25.2,24.4l7.6,8l24.4-25.6L167.6,129.5z M140.9,155.3l-17.4,16.9c-1.2-0.4-2.2-1.1-3.1-2
			l-0.1-0.1l0.9-0.9l-2.8-2.7l-0.9,0.9l-1.6-1.6l-14.2,14.3l1.6,1.6l-0.9,0.9l2.8,2.7l0.9-0.9l0.1,0.1c1,1,1.7,2.2,2.2,3.5
			c0.6,1.8,1.6,3.4,3,4.9c1.4,1.4,3.1,2.4,4.9,3c1.3,0.4,2.6,1.2,3.5,2.1l0.1,0.1l-0.9,0.9l2.8,2.7l0.9-0.9l1.6,1.6l14.2-14.3
			l-1.6-1.6l0.9-1l-2.8-2.7l-0.9,0.9l-0.1-0.1c-0.9-0.9-1.5-1.9-2-3l16.8-17.6L140.9,155.3z M125.9,190.6c-3.4,3.4-8.8,3.4-12.2,0.1
			c-3.4-3.4-3.4-8.8-0.1-12.2c3.4-3.4,8.8-3.4,12.2-0.1C129.2,181.8,129.3,187.2,125.9,190.6z"/>
	</g>
</g>
</svg>
