<?xml version="1.0" encoding="utf-8"?>
<!-- Generator: Adobe Illustrator 18.1.0, SVG Export Plug-In . SVG Version: 6.00 Build 0)  -->
<svg version="1.1" id="Слой_1" xmlns="http://www.w3.org/2000/svg" xmlns:xlink="http://www.w3.org/1999/xlink" x="0px" y="0px"
	 viewBox="0 0 300 300" enable-background="new 0 0 300 300" xml:space="preserve">
<g>
	<g>
		<g>
			<g>
				<rect x="84" y="179.9" width="19.7" height="5.2"/>
			</g>
			<g>
				<rect x="196.3" y="179.9" width="19.7" height="5.2"/>
			</g>
		</g>
		<path d="M107,178.6c0,4.3,2.5,11.6,11.7,11.6c3.8,0,7.5-1.7,11.1-5.1c4.9-4.7,7.7-11.5,7.7-18.6v-4.8
			C110.2,162.3,107,171.6,107,178.6z M121.3,166.4c0.9-0.2,1.5,1,0.7,1.5c-6.1,3.9-9.3,9.2-10.8,12.5c-0.4,0.8-1.6,0.6-1.6-0.3
			C109.2,171.2,116.2,167.7,121.3,166.4z"/>
		<path d="M162.5,161.7v4.8c0,7.1,2.8,13.8,7.7,18.6c3.5,3.4,7.3,5.1,11.1,5.1c9.3,0,11.7-7.3,11.7-11.6
			C193,171.6,189.8,162.3,162.5,161.7z M188.8,180.4c-1.5-3.3-4.7-8.6-10.8-12.5c-0.8-0.5-0.2-1.8,0.7-1.5
			c5.1,1.3,12.1,4.8,11.7,13.7C190.3,181,189.1,181.2,188.8,180.4z"/>
		<g>
			<path d="M160.1,166.2c0-0.1,0-0.1,0-0.2v-2.8h-20.1v2.8c0,0.1,0,0.1,0,0.2H160.1z"/>
			<path d="M154.7,156.5H150v0h-4.7c-38.2,0-43.4,12.4-43.4,22.6c0,5.9,3.4,15.9,16,15.9c15.8,0,20.5-14.1,24.5-19.7
				c3-4.2,7.7-4.5,7.7-4.5s4.7,0.3,7.7,4.5c4,5.6,8.7,19.7,24.5,19.7c12.6,0,16-10,16-15.9C198.2,168.8,193,156.5,154.7,156.5z
				 M181.5,192.6c-4.4,0-8.7-2-12.8-5.8c-5.1-4.9-8.1-11.7-8.6-18.9h-20.2c-0.4,7.2-3.5,14-8.6,18.9c-4,3.9-8.3,5.8-12.8,5.8
				c-11,0-14-8.7-14-13.8c0-8.1,3.6-19,34.6-19.4l0.8,0v2.3h20.1v-2.3l0.8,0c31,0.4,34.6,11.3,34.6,19.4
				C195.4,183.9,192.5,192.6,181.5,192.6z"/>
		</g>
		<g>
			<g>
				<path d="M140.7,105.3v48c1,0,2,0,3,0V105C142.6,105.1,141.6,105.2,140.7,105.3z"/>
			</g>
			<g>
				<path d="M159.3,105.3c-1-0.1-2-0.2-3-0.3v48.3c1,0,2,0,3,0V105.3z"/>
			</g>
			<g>
				<g>
					<path d="M212.6,178.4c0.6-5.3,0.8-10.3,0.8-14.7c0-30.8-22-53.1-51.2-57.9v47.7c22,0.6,38.7,4.1,40.9,25H212.6z"/>
				</g>
				<g>
					<path d="M203.3,186.6c-0.1,2.2-0.2,4.6-0.4,7.1h7.5c0.4-2.4,0.8-4.7,1.2-7.1H203.3z"/>
				</g>
			</g>
			<g>
				<g>
					<path d="M86.6,163.7c0,4.4,0.3,9.4,0.8,14.7h9.5c2.2-20.9,18.9-24.4,40.9-25v-47.7C108.6,110.6,86.6,132.8,86.6,163.7z"/>
				</g>
				<g>
					<path d="M88.4,186.6c0.3,2.3,0.7,4.7,1.2,7.1h7.5c-0.2-2.5-0.4-4.8-0.4-7.1H88.4z"/>
				</g>
			</g>
		</g>
	</g>
</g>
</svg>
