<svg xmlns="http://www.w3.org/2000/svg" viewBox="0 0 300 300"><path d="M84 179.9h19.7v5.2H84zM196.3 179.9H216v5.2h-19.7zM107 178.6c0 4.3 2.5 11.6 11.7 11.6 3.8 0 7.5-1.7 11.1-5.1 4.9-4.7 7.7-11.5 7.7-18.6v-4.8c-27.3.6-30.5 9.9-30.5 16.9zm14.3-12.2c.9-.2 1.5 1 .7 1.5-6.1 3.9-9.3 9.2-10.8 12.5-.4.8-1.6.6-1.6-.3-.4-8.9 6.6-12.4 11.7-13.7zM162.5 161.7v4.8c0 7.1 2.8 13.8 7.7 18.6 3.5 3.4 7.3 5.1 11.1 5.1 9.3 0 11.7-7.3 11.7-11.6 0-7-3.2-16.3-30.5-16.9zm26.3 18.7c-1.5-3.3-4.7-8.6-10.8-12.5-.8-.5-.2-1.8.7-1.5 5.1 1.3 12.1 4.8 11.7 13.7-.1.9-1.3 1.1-1.6.3zM160.1 166.2v-3H140v3h20.1z"/><path d="M154.7 156.5h-9.4c-38.2 0-43.4 12.4-43.4 22.6 0 5.9 3.4 15.9 16 15.9 15.8 0 20.5-14.1 24.5-19.7 3-4.2 7.7-4.5 7.7-4.5s4.7.3 7.7 4.5c4 5.6 8.7 19.7 24.5 19.7 12.6 0 16-10 16-15.9-.1-10.3-5.3-22.6-43.6-22.6zm26.8 36.1c-4.4 0-8.7-2-12.8-5.8-5.1-4.9-8.1-11.7-8.6-18.9h-20.2c-.4 7.2-3.5 14-8.6 18.9-4 3.9-8.3 5.8-12.8 5.8-11 0-14-8.7-14-13.8 0-8.1 3.6-19 34.6-19.4h.8v2.3H160v-2.3h.8c31 .4 34.6 11.3 34.6 19.4 0 5.1-2.9 13.8-13.9 13.8z"/><g><path d="M140.7 105.3v48h3V105c-1.1.1-2.1.2-3 .3zM159.3 105.3l-3-.3v48.3h3v-48zM212.6 178.4c.6-5.3.8-10.3.8-14.7 0-30.8-22-53.1-51.2-57.9v47.7c22 .6 38.7 4.1 40.9 25h9.5zM203.3 186.6c-.1 2.2-.2 4.6-.4 7.1h7.5c.4-2.4.8-4.7 1.2-7.1h-8.3z"/><g><path d="M86.6 163.7c0 4.4.3 9.4.8 14.7h9.5c2.2-20.9 18.9-24.4 40.9-25v-47.7c-29.2 4.9-51.2 27.1-51.2 58zM88.4 186.6c.3 2.3.7 4.7 1.2 7.1h7.5c-.2-2.5-.4-4.8-.4-7.1h-8.3z"/></g></g></svg>