<svg xmlns="http://www.w3.org/2000/svg" viewBox="0 0 300 300"><path d="M123 100.3l-2.7-2.8-26.6 26.4 2.7 2.7-.9.9 1.7 1.6.8-.8 26.6-26.4.9-.8-1.7-1.7zM99.6 129.8l-.9.9 1.7 1.7.8-.9 26.6-26.4.9-.8-1.7-1.7-.8.9zM129.4 106.7l-26.6 26.4-.9.9 1.7 1.7.9-.9 13.5 13.6 2.4-2.4-2.4-4.5 19.6-19.4 4.5 2.5 2.4-2.4-13.5-13.8.9-.8-1.7-1.7-.8.8zm-3.5 23.1c-1.8 1.8-4.7 1.8-6.5 0-1.8-1.8-1.8-4.7 0-6.5 1.8-1.8 4.7-1.8 6.5 0 1.8 1.7 1.8 4.7 0 6.5z"/><path d="M182.5 167.4l-.9-1-2.8 2.7.9 1-.1.1c-.9.9-1.9 1.5-3.1 2l-44.1-42.7-6.9 6.8 42.4 44.4c-.5 1.1-1.1 2.2-2 3.1l-.1.1-.9-1-2.8 2.7.9 1-1.6 1.6 14.2 14.3 1.6-1.6.9.9 2.8-2.7-.9-.9.1-.1c1-1 2.2-1.7 3.5-2.1 1.8-.6 3.5-1.6 4.9-3 1.4-1.4 2.4-3.1 3-4.9.4-1.3 1.2-2.5 2.2-3.5l.1-.1.9.9 2.8-2.7-.9-.9 1.6-1.6-14.2-14.3-1.5 1.5zm3.8 23.3c-3.4 3.3-8.8 3.3-12.2-.1-3.3-3.4-3.3-8.8.1-12.2 3.4-3.3 8.8-3.3 12.2.1 3.3 3.4 3.3 8.8-.1 12.2z"/><g><path d="M177 100.3l2.7-2.8 26.6 26.4-2.7 2.7.9.9-1.7 1.6-.8-.8-26.6-26.4-.9-.8 1.7-1.7zM200.4 129.8l.9.9-1.7 1.7-.8-.9-26.6-26.4-.9-.8 1.7-1.7.8.9zM169.8 105.9l-1.7 1.7.9.8-13.5 13.6 2.4 2.4 4.5-2.5 19.6 19.4-2.4 4.5 2.4 2.4 13.5-13.6.9.9 1.7-1.7-.9-.9-26.6-26.4-.8-.6zm4.3 17.3c1.8-1.8 4.7-1.8 6.5 0 1.8 1.8 1.8 4.7 0 6.5-1.8 1.8-4.7 1.8-6.5 0-1.8-1.7-1.8-4.7 0-6.5z"/><path d="M167.6 129.5l-25.2 24.4 7.6 8 24.4-25.6-6.8-6.8zm-26.7 25.8l-17.4 16.9c-1.2-.4-2.2-1.1-3.1-2l-.1-.1.9-.9-2.8-2.7-.9.9-1.6-1.6-14.2 14.3 1.6 1.6-.9.9 2.8 2.7.9-.9.1.1c1 1 1.7 2.2 2.2 3.5.6 1.8 1.6 3.4 3 4.9 1.4 1.4 3.1 2.4 4.9 3 1.3.4 2.6 1.2 3.5 2.1l.1.1-.9.9 2.8 2.7.9-.9 1.6 1.6 14.2-14.3-1.6-1.6.9-1-2.8-2.7-.9.9-.1-.1c-.9-.9-1.5-1.9-2-3l16.8-17.6-7.9-7.7zm-15 35.3c-3.4 3.4-8.8 3.4-12.2.1-3.4-3.4-3.4-8.8-.1-12.2 3.4-3.4 8.8-3.4 12.2-.1 3.4 3.4 3.5 8.8.1 12.2z"/></g></svg>