<?xml version="1.0" encoding="utf-8"?>
<!-- Generator: Adobe Illustrator 18.1.0, SVG Export Plug-In . SVG Version: 6.00 Build 0)  -->
<svg version="1.1" id="Слой_1" xmlns="http://www.w3.org/2000/svg" xmlns:xlink="http://www.w3.org/1999/xlink" x="0px" y="0px"
	 viewBox="0 0 300 300" enable-background="new 0 0 300 300" xml:space="preserve">
<g>
	<path fill="#191818" d="M163,122.2c5.5,0,10.5,2.1,14,6c1.9,2.2,3.4,4.7,4.2,7.5c1.4-3.3,2.4-8-0.5-13.2
		c-11.1-20.1-43.5,8.2-43.5,8.2s13.7-5.8,18.4-7.3C157.3,122.8,160.6,122.2,163,122.2z"/>
	<path fill="#191818" d="M130.1,177.2l36.1,0c2.1,0,3.7-1.7,3.7-3.7c0-1.3-0.6-2.4-1.6-3.1c-0.6,1.3-1,3-4.8,3c-5.5,0-24.5,0-39.9,0
		C126.3,173.7,128.6,175.1,130.1,177.2z"/>
	<path fill="#191818" d="M90.9,132.9c8.1,0,15.4,2.9,21.2,7.8l4-1.6c-4.8-4.5-10.7-7.8-17.3-9.2c0,0-0.6-1.1,5-1.1
		c1.5,0,4.5,0.4,8.4,1.7c3.2,1.1,6.8,4.1,12,4.1c7.7,0,12.1-7.4,12.1-8.7c0-1.2-1-2.2-2.2-2.2h-29c-0.9,0-6.7,0.2-6.7-0.3
		c0-1.1-0.9-2-2-2l-23.5-1.1c-1.1,0-2,0.9-2,2c0,1.1,0.9,4.4,1.1,5.1c0.7,1.8,1.4,2.6,3.1,2.6h8.1c-4.7,1-9,2.9-12.9,5.6
		c-2.6,0-9.6,0-9.6,0c-1.1,0-2,1.8-2,4c0,0,0,0,0,0c0,0,0,0,0,0c0,0,0,0,0,0c0,2.2,0.9,4,2,4.1l1.2,0c-4.7,6.1-7.4,13.8-7.5,22
		c0,2,0.2,3.9,0.5,5.8c0,0,3.7-0.8,3.4-5.8C58.2,147.5,72.9,132.9,90.9,132.9z"/>
	<path fill="#191818" d="M166.4,160.7c-0.7-1-1.8-1.7-3.1-1.7c-2-2.2-5.5-3.7-9.6-3.7c-4.1,0-7.6,1.5-9.6,3.7h0
		c-2.2,0-4.1,1.8-4.1,4.1c0,2.2,1.8,4.1,4.1,4.1h0c2,2.2,5.5,3.7,9.6,3.7c4.1,0,7.6-1.5,9.6-3.7c1.4-0.1,2.5-0.8,3.2-1.9
		c4,0.2,7.2,3.5,7.2,7.6c0,4.2-3.4,7.6-7.6,7.6h-38.8c-0.7-1.8-2.5-3-4.5-3h-32l-4.3,7.6c-8.6-2-14.9-9.7-14.9-18.9
		c0-10.7,8.7-19.4,19.4-19.4c1.6,0,3.2,0.2,4.7,0.6l11.7-4.6c-4.6-3.3-10.3-5.2-16.4-5.2c-15.8,0-28.6,12.9-28.7,28.7
		c0,15.8,12.9,28.6,28.7,28.7c7.4,0,14.2-2.9,19.3-7.5h12.4c2,0,3.7-1.2,4.5-2.9h38.8c6.3,0,11.5-5.1,11.5-11.5
		C177.6,166.5,172.6,161.4,166.4,160.7z"/>
	<path fill="#191818" d="M217,137.7c-3,0-5.9,0.5-8.6,1.3l5,8.3c1.2-0.2,2.4-0.3,3.6-0.4c10.7,0,19.4,8.7,19.4,19.4
		c0,10.7-8.7,19.4-19.4,19.4c-10.7,0-19.4-8.7-19.4-19.4c0-5.4,2.2-10.3,5.8-13.8l4.4,6.1c-1.7,2.1-2.7,4.7-2.7,7.6
		c0,6.6,5.4,12,12,12c6.6,0,12-5.4,12-12c0-6.6-5.4-12-12-12c-1.2,0-2.4,0.2-3.5,0.5l-10.9-18.1c4.3-2.1,9.2-3.4,14.4-3.4
		c6.1,0,11.8,1.6,16.7,4.5c4.1,2.1,5.7-1.1,5.7-1.1c-6.2-4.7-13.9-7.5-22.3-7.5c-5.9,0-11.5,1.4-16.5,3.9l-1.1-1.8l-7.5-9.6
		c2,1.3,4.6,2.1,7.4,2.1c0,0,1.6,0,2.1,0c0,0,0,0,0,0c0,0,0,0,0,0c0,0,0,0,0,0c0,0,0,0,0,0c1.5-0.1,2.6-4.2,2.7-9.3
		c0-0.1,0-0.1,0-0.2v0c0-5.2-1.2-9.4-2.7-9.5c0,0,0,0,0,0c0,0,0,0,0,0c0,0,0,0,0,0c0,0,0,0,0,0c-0.7,0-2.1,0.1-2.1,0.1
		c-3.6,0-6.8,1.3-9,3.3v0c0,0-3.8,2.6-5.4,6.7l-1.5-2.5c0,0,0-0.1-0.1-0.1c0-0.1-0.1-0.2-0.1-0.3c-2.2-3.7-5.7-4.1-6.9-4.1
		c-0.2,0-0.3,0-0.4,0l-10.3,0c-1.1,0-1.9,0.9-1.9,1.9c0,1.1,0.9,1.9,1.9,1.9v0l10.5,0l0.1,0c0,0,0,0,0.1,0c0.6,0,2.3,0.1,3.6,2.2
		c0,0.1,0.1,0.1,0.2,0.2c0,0,0,0.1,0,0.1l11.7,22l1.2,1.7c-8,6.8-13.1,16.9-13.1,28.2c0,5.7,1.3,11.2,3.6,16c0,0,3.2-1.8,2.2-5.4
		c-1.1-3.3-1.7-6.9-1.7-10.6c0-9.9,4.5-18.8,11.4-24.9l2.5,3.5c-5.9,5.2-9.6,12.9-9.7,21.4c0,15.8,12.9,28.6,28.7,28.6
		c15.8,0,28.6-12.9,28.7-28.6C245.6,150.6,232.8,137.7,217,137.7z"/>
	<path fill="#191818" d="M93.9,173.4h6.4c1.3-1.6,2.1-3.5,2.5-5.6h7.6c-0.2,1.9-0.7,3.8-1.4,5.5h9.7c0.5-1.8,0.8-3.6,1-5.5h4.3
		c0.3,0.6,0.9,1,1.7,1l13.2,0c-1.6-1.5-2.7-3.6-2.7-5.9c0-1.9,0.6-3.8,1.8-5c2.3-2.3,4.3-2.7,4.4-2.7c2.8-2.4,7-3.8,11.3-3.8
		c4.5,0,8.6,1.5,11.5,3.9c1.5,0.7,9,4.9,10.2,5.6l2.6-17.5c0.1-0.8,0.2-1.5,0.2-2.3c0-3.8-1.4-7.6-4-10.5c-2.6-2.9-6.5-4.8-11.1-4.7
		c-1.9,0-3.9,0.3-6.1,0.9l-0.1,0L87,154.8l0,0c-4.6,1.6-7.9,6-7.9,11.2c0,2.8,1,5.3,2.6,7.3c0,0,0,0,0,0c0,0,0.1,0.1,0.1,0.1h0
		c1.3,1.6,2.9,2.8,4.8,3.6l0.9-1.6l1-1.8c-0.2-0.1-0.3-0.1-0.5-0.2 M90.9,169.8h0.2 M91.1,162.1 M102.8,164
		c-0.6-3.9-3.1-7.1-6.5-8.7l8.3-3.3c3.2,3.1,5.4,7.3,5.9,12L102.8,164z M119.6,164c-0.4-5.9-2.6-11.3-6-15.6l4-1.6
		c3.5,4.9,5.7,10.8,6,17.2H119.6z"/>
</g>
</svg>
