<svg xmlns="http://www.w3.org/2000/svg" viewBox="0 0 300 300"><g fill="#191818"><path d="M163 122.2c5.5 0 10.5 2.1 14 6 1.9 2.2 3.4 4.7 4.2 7.5 1.4-3.3 2.4-8-.5-13.2-11.1-20.1-43.5 8.2-43.5 8.2s13.7-5.8 18.4-7.3c1.7-.6 5-1.2 7.4-1.2zM130.1 177.2h36.1c2.1 0 3.7-1.7 3.7-3.7 0-1.3-.6-2.4-1.6-3.1-.6 1.3-1 3-4.8 3h-39.9c2.7.3 5 1.7 6.5 3.8zM90.9 132.9c8.1 0 15.4 2.9 21.2 7.8l4-1.6c-4.8-4.5-10.7-7.8-17.3-9.2 0 0-.6-1.1 5-1.1 1.5 0 4.5.4 8.4 1.7 3.2 1.1 6.8 4.1 12 4.1 7.7 0 12.1-7.4 12.1-8.7 0-1.2-1-2.2-2.2-2.2h-29c-.9 0-6.7.2-6.7-.3 0-1.1-.9-2-2-2l-23.5-1.1c-1.1 0-2 .9-2 2s.9 4.4 1.1 5.1c.7 1.8 1.4 2.6 3.1 2.6h8.1c-4.7 1-9 2.9-12.9 5.6h-9.6c-1.1 0-2 1.8-2 4s.9 4 2 4.1h1.2c-4.7 6.1-7.4 13.8-7.5 22 0 2 .2 3.9.5 5.8 0 0 3.7-.8 3.4-5.8-.1-18.2 14.6-32.8 32.6-32.8z"/><path d="M166.4 160.7c-.7-1-1.8-1.7-3.1-1.7-2-2.2-5.5-3.7-9.6-3.7s-7.6 1.5-9.6 3.7c-2.2 0-4.1 1.8-4.1 4.1 0 2.2 1.8 4.1 4.1 4.1 2 2.2 5.5 3.7 9.6 3.7s7.6-1.5 9.6-3.7c1.4-.1 2.5-.8 3.2-1.9 4 .2 7.2 3.5 7.2 7.6 0 4.2-3.4 7.6-7.6 7.6h-38.8c-.7-1.8-2.5-3-4.5-3h-32l-4.3 7.6c-8.6-2-14.9-9.7-14.9-18.9 0-10.7 8.7-19.4 19.4-19.4 1.6 0 3.2.2 4.7.6l11.7-4.6c-4.6-3.3-10.3-5.2-16.4-5.2-15.8 0-28.6 12.9-28.7 28.7 0 15.8 12.9 28.6 28.7 28.7 7.4 0 14.2-2.9 19.3-7.5h12.4c2 0 3.7-1.2 4.5-2.9H166c6.3 0 11.5-5.1 11.5-11.5.1-6.6-4.9-11.7-11.1-12.4zM217 137.7c-3 0-5.9.5-8.6 1.3l5 8.3c1.2-.2 2.4-.3 3.6-.4 10.7 0 19.4 8.7 19.4 19.4s-8.7 19.4-19.4 19.4-19.4-8.7-19.4-19.4c0-5.4 2.2-10.3 5.8-13.8l4.4 6.1c-1.7 2.1-2.7 4.7-2.7 7.6 0 6.6 5.4 12 12 12s12-5.4 12-12-5.4-12-12-12c-1.2 0-2.4.2-3.5.5l-10.9-18.1c4.3-2.1 9.2-3.4 14.4-3.4 6.1 0 11.8 1.6 16.7 4.5 4.1 2.1 5.7-1.1 5.7-1.1-6.2-4.7-13.9-7.5-22.3-7.5-5.9 0-11.5 1.4-16.5 3.9l-1.1-1.8-7.5-9.6c2 1.3 4.6 2.1 7.4 2.1h2.1c1.5-.1 2.6-4.2 2.7-9.3v-.2c0-5.2-1.2-9.4-2.7-9.5-.7 0-2.1.1-2.1.1-3.6 0-6.8 1.3-9 3.3 0 0-3.8 2.6-5.4 6.7l-1.5-2.5s0-.1-.1-.1c0-.1-.1-.2-.1-.3-2.2-3.7-5.7-4.1-6.9-4.1H165.8c-1.1 0-1.9.9-1.9 1.9 0 1.1.9 1.9 1.9 1.9h10.7c.6 0 2.3.1 3.6 2.2 0 .1.1.1.2.2v.1l11.7 22 1.2 1.7c-8 6.8-13.1 16.9-13.1 28.2 0 5.7 1.3 11.2 3.6 16 0 0 3.2-1.8 2.2-5.4-1.1-3.3-1.7-6.9-1.7-10.6 0-9.9 4.5-18.8 11.4-24.9l2.5 3.5c-5.9 5.2-9.6 12.9-9.7 21.4 0 15.8 12.9 28.6 28.7 28.6 15.8 0 28.6-12.9 28.7-28.6-.2-15.4-13-28.3-28.8-28.3z"/><path d="M93.9 173.4h6.4c1.3-1.6 2.1-3.5 2.5-5.6h7.6c-.2 1.9-.7 3.8-1.4 5.5h9.7c.5-1.8.8-3.6 1-5.5h4.3c.3.6.9 1 1.7 1h13.2c-1.6-1.5-2.7-3.6-2.7-5.9 0-1.9.6-3.8 1.8-5 2.3-2.3 4.3-2.7 4.4-2.7 2.8-2.4 7-3.8 11.3-3.8 4.5 0 8.6 1.5 11.5 3.9 1.5.7 9 4.9 10.2 5.6l2.6-17.5c.1-.8.2-1.5.2-2.3 0-3.8-1.4-7.6-4-10.5-2.6-2.9-6.5-4.8-11.1-4.7-1.9 0-3.9.3-6.1.9h-.1l-69.9 28c-4.6 1.6-7.9 6-7.9 11.2 0 2.8 1 5.3 2.6 7.3l.1.1c1.3 1.6 2.9 2.8 4.8 3.6l.9-1.6 1-1.8c-.2-.1-.3-.1-.5-.2m2.9-3.6h.2M102.8 164c-.6-3.9-3.1-7.1-6.5-8.7l8.3-3.3c3.2 3.1 5.4 7.3 5.9 12h-7.7zm16.8 0c-.4-5.9-2.6-11.3-6-15.6l4-1.6c3.5 4.9 5.7 10.8 6 17.2h-4z"/></g></svg>