<?xml version="1.0" encoding="utf-8"?>
<!-- Generator: Adobe Illustrator 18.1.0, SVG Export Plug-In . SVG Version: 6.00 Build 0)  -->
<svg version="1.1" id="Слой_1" xmlns="http://www.w3.org/2000/svg" xmlns:xlink="http://www.w3.org/1999/xlink" x="0px" y="0px"
	 viewBox="0 0 628 196" enable-background="new 0 0 628 196" xml:space="preserve">
<g>
	<path fill="#FFFFFF" d="M339.9,58.6c7.1,0,13.5,2.7,18,7.7c2.5,2.8,4.3,6.1,5.4,9.7c1.8-4.2,3.1-10.2-0.7-17
		c-14.2-25.8-55.9,10.5-55.9,10.5s17.6-7.5,23.6-9.4C332.7,59.4,336.9,58.6,339.9,58.6z"/>
	<path fill="#FFFFFF" d="M297.6,129.4l46.3,0c2.7,0,4.8-2.1,4.8-4.8c0-1.6-0.8-3.1-2.1-3.9c-0.7,1.6-1.3,3.8-6.1,3.8
		c-7.1,0-31.4,0-51.3,0C292.8,124.8,295.8,126.7,297.6,129.4z"/>
	<path fill="#FFFFFF" d="M247.3,72.4c10.4,0,19.8,3.8,27.2,10l5.1-2.1c-6.1-5.8-13.8-10-22.3-11.8c0,0-0.8-1.5,6.4-1.5
		c1.9,0,5.8,0.5,10.8,2.2c4.1,1.4,8.7,5.3,15.4,5.3c9.9,0,15.6-9.6,15.6-11.1c0-1.6-1.3-2.9-2.9-2.9h-37.3c-1.2,0-8.6,0.3-8.6-0.4
		c0-1.4-1.2-2.6-2.6-2.6L224,56c-1.4,0-2.6,1.2-2.6,2.6c0,1.4,1.1,5.6,1.5,6.5c0.9,2.4,1.8,3.3,4,3.3h10.5c-6,1.3-11.6,3.8-16.5,7.2
		c-3.3,0-12.4,0-12.4,0c-1.4,0-2.6,2.3-2.6,5.2c0,0,0,0,0,0c0,0,0,0,0,0c0,0,0,0,0,0c0,2.9,1.2,5.2,2.6,5.2l1.5,0
		c-6,7.9-9.6,17.7-9.6,28.3c0,2.6,0.2,5.1,0.6,7.5c0,0,4.7-1,4.4-7.5C205.3,91.3,224.1,72.4,247.3,72.4z"/>
	<path fill="#FFFFFF" d="M344.3,108.2c-0.9-1.3-2.3-2.1-4-2.2c-2.6-2.8-7.1-4.7-12.4-4.7c-5.2,0-9.8,1.9-12.3,4.7h0
		c-2.9,0-5.2,2.3-5.2,5.2c0,2.9,2.3,5.2,5.2,5.2h0c2.6,2.8,7.1,4.7,12.3,4.7c5.2,0,9.8-1.9,12.4-4.7c1.7-0.1,3.2-1.1,4.1-2.4
		c5.2,0.3,9.3,4.5,9.3,9.7c0,5.4-4.4,9.7-9.8,9.8h-49.8c-0.9-2.3-3.2-3.9-5.8-3.9h-41.1l-5.5,9.7c-11-2.6-19.2-12.5-19.2-24.2
		c0-13.8,11.2-24.9,25-25c2.1,0,4.1,0.3,6,0.8l15-6c-6-4.2-13.2-6.7-21-6.7c-20.3,0-36.8,16.5-36.8,36.8c0,20.3,16.5,36.8,36.8,36.8
		c9.6,0,18.3-3.7,24.8-9.7h16c2.6,0,4.8-1.5,5.8-3.8H344c8.1,0,14.7-6.6,14.7-14.7C358.7,115.5,352.3,109,344.3,108.2z"/>
	<path fill="#FFFFFF" d="M409.4,78.6c-3.8,0-7.5,0.6-11,1.7l6.4,10.6c1.5-0.3,3-0.4,4.6-0.5c13.8,0,24.9,11.2,25,25
		c0,13.8-11.2,24.9-25,25c-13.8,0-24.9-11.2-25-25c0-6.9,2.9-13.2,7.5-17.7l5.6,7.9c-2.2,2.7-3.5,6.1-3.5,9.8
		c0,8.5,6.9,15.4,15.4,15.4c8.5,0,15.4-6.9,15.4-15.4c0-8.5-6.9-15.4-15.4-15.4c-1.6,0-3.1,0.2-4.5,0.7l-14-23.2
		c5.6-2.7,11.8-4.3,18.5-4.3c7.8,0,15.1,2.1,21.4,5.8c5.3,2.7,7.3-1.4,7.3-1.4c-8-6.1-17.9-9.6-28.7-9.6c-7.6,0-14.8,1.8-21.2,5
		l-1.4-2.3l-9.6-12.4c2.6,1.7,5.9,2.7,9.5,2.7c0,0,2,0,2.7,0c0,0,0,0,0,0c0,0,0,0,0,0c0,0,0,0,0.1,0c0,0,0,0,0,0
		c1.9-0.2,3.4-5.4,3.4-12c0-0.1,0-0.1,0-0.2v0c0-6.6-1.5-12-3.4-12.2c0,0,0,0,0,0c0,0,0,0-0.1,0c0,0,0,0,0,0c0,0,0,0,0,0
		c-0.8,0-2.7,0.1-2.7,0.1c-4.6,0-8.7,1.7-11.5,4.3v0c0,0-4.8,3.3-6.9,8.6l-1.9-3.3c0,0-0.1-0.1-0.1-0.1c0-0.1-0.1-0.2-0.2-0.3
		c-2.8-4.7-7.3-5.3-8.9-5.2c-0.2,0-0.4,0-0.6,0l-13.2,0c-1.4,0-2.5,1.1-2.5,2.5c0,1.4,1.1,2.5,2.5,2.5v0l13.5,0l0.1,0c0,0,0,0,0.1,0
		c0.8,0,3,0.1,4.6,2.8c0.1,0.1,0.1,0.2,0.2,0.3c0,0,0,0.1,0,0.1L377.2,77l1.5,2.1c-10.3,8.7-16.9,21.7-16.9,36.3
		c0,7.3,1.7,14.3,4.7,20.5c0,0,4.1-2.3,2.8-7c-1.4-4.3-2.2-8.8-2.2-13.6c0-12.8,5.7-24.2,14.7-32l3.2,4.5
		c-7.6,6.7-12.4,16.6-12.4,27.5c0,20.3,16.5,36.8,36.8,36.8c20.3,0,36.8-16.5,36.8-36.8C446.1,95.1,429.7,78.6,409.4,78.6z
		 M400.7,110.2l4.9,7c0.7,1.2,2,1.8,3.3,1.8c0.7,0,1.5-0.2,2.1-0.6c1.8-1.2,2.3-3.6,1.2-5.4l-4.5-7.5c0.5-0.1,1.1-0.2,1.7-0.2
		c5.6,0,10.2,4.6,10.2,10.2c0,5.6-4.6,10.2-10.2,10.2c-5.6,0-10.2-4.6-10.2-10.2h0C399.2,113.5,399.7,111.7,400.7,110.2z"/>
	<path fill="#FFFFFF" d="M339.9,63.6c-2.4,0-5,0.4-7.8,1.2l-0.1,0l-89.6,35.7l0,0c-5.9,2.1-10.1,7.7-10.1,14.4
		c0,3.6,1.3,6.8,3.3,9.4c0,0,0,0,0,0c0,0.1,0.1,0.1,0.1,0.2h0c1.6,2,3.7,3.6,6.1,4.6l1.2-2.1l1.3-2.3c-0.2-0.1-0.4-0.2-0.6-0.3
		c-3.8-1.5-6.5-5.2-6.5-9.5c0-5.7,4.6-10.3,10.3-10.3c4.8,0,8.8,3.3,10,7.8h-5.7c-0.9-1.5-2.4-2.4-4.2-2.5c-2.7,0-5,2.2-5,5
		c0,2.7,2.1,4.9,4.8,5h0.3c1.8-0.1,3.3-1.1,4.1-2.5h5.7c-0.8,3.3-3.2,5.9-6.3,7.1h8.2c1.6-2,2.8-4.5,3.2-7.1h9.8
		c-0.3,2.5-0.9,4.9-1.8,7.1H283c0.6-2.3,1.1-4.7,1.2-7.1h5.5c0.4,0.8,1.2,1.3,2.2,1.3l16.9,0c-2.1-1.9-3.4-4.6-3.4-7.6
		c0-2.5,0.7-4.9,2.3-6.5c3-3,5.5-3.4,5.6-3.5c3.6-3.1,8.9-4.9,14.6-4.9c5.7,0,11.1,1.9,14.7,5.1c1.9,0.9,11.5,6.3,13.1,7.2l3.3-22.4
		c0.1-1,0.2-2,0.2-3c0-4.9-1.8-9.8-5.1-13.4C350.9,66,345.9,63.6,339.9,63.6z M262.6,112.4c-0.8-4.9-4-9.1-8.4-11.2l10.6-4.2
		c4.1,4,6.9,9.4,7.5,15.4L262.6,112.4z M284.2,112.4c-0.5-7.5-3.3-14.5-7.7-20.1l5.1-2c4.5,6.3,7.3,13.9,7.7,22.1H284.2z"/>
</g>
<g>
	<path fill="#FFFFFF" d="M31.9,100.7c1.5-0.3,3.1-0.5,4.9-0.7c1.8-0.2,3.6-0.2,5.4-0.2c1.8,0,3.7,0.2,5.6,0.5c1.9,0.3,3.5,0.9,5,1.8
		c1.5,0.9,2.7,2.2,3.7,3.8c0.9,1.6,1.4,3.7,1.4,6.3c0,2.3-0.4,4.3-1.2,6c-0.8,1.6-1.9,2.9-3.3,4c-1.4,1-2.9,1.8-4.6,2.2
		c-1.7,0.5-3.5,0.7-5.4,0.7c-0.2,0-0.5,0-0.9,0c-0.4,0-0.8,0-1.2,0c-0.4,0-0.8,0-1.3-0.1c-0.4,0-0.7-0.1-0.9-0.1v12.9h-7.3V100.7z
		 M42.8,106.1c-0.7,0-1.4,0-2,0.1c-0.6,0.1-1.2,0.1-1.5,0.2v12.1c0.1,0,0.4,0.1,0.6,0.1c0.3,0,0.6,0.1,0.9,0.1c0.3,0,0.6,0,0.9,0
		c0.3,0,0.5,0,0.7,0c1,0,1.9-0.1,2.9-0.3c0.9-0.2,1.8-0.5,2.5-1c0.7-0.5,1.3-1.1,1.8-2c0.4-0.9,0.7-2,0.7-3.4c0-1.2-0.2-2.1-0.6-2.9
		c-0.4-0.8-1-1.4-1.7-1.8c-0.7-0.5-1.5-0.8-2.4-1C44.6,106.2,43.7,106.1,42.8,106.1z"/>
	<path fill="#FFFFFF" d="M62.4,100.3h22.1v6.5H69.7v8.7h13.5v6.5H69.7v9.1h15.1v6.5H62.4V100.3z"/>
	<path fill="#FFFFFF" d="M116.8,106.8h-10.9v30.8h-7.3v-30.8H87.7v-6.5h29.1V106.8z"/>
	<path fill="#FFFFFF" d="M120.6,100.7c1.5-0.3,3.1-0.5,4.9-0.7c1.8-0.2,3.6-0.2,5.4-0.2c1.8,0,3.7,0.2,5.6,0.5
		c1.9,0.3,3.5,0.9,5,1.8c1.5,0.9,2.7,2.2,3.7,3.8c0.9,1.6,1.4,3.7,1.4,6.3c0,2.3-0.4,4.3-1.2,6c-0.8,1.6-1.9,2.9-3.3,4
		c-1.4,1-2.9,1.8-4.6,2.2c-1.7,0.5-3.5,0.7-5.4,0.7c-0.2,0-0.5,0-0.9,0c-0.4,0-0.8,0-1.2,0c-0.4,0-0.8,0-1.3-0.1
		c-0.4,0-0.7-0.1-0.9-0.1v12.9h-7.3V100.7z M131.5,106.1c-0.7,0-1.4,0-2,0.1c-0.6,0.1-1.2,0.1-1.5,0.2v12.1c0.1,0,0.4,0.1,0.6,0.1
		c0.3,0,0.6,0.1,0.9,0.1c0.3,0,0.6,0,0.9,0c0.3,0,0.5,0,0.7,0c1,0,1.9-0.1,2.9-0.3c0.9-0.2,1.8-0.5,2.5-1c0.7-0.5,1.3-1.1,1.8-2
		c0.4-0.9,0.7-2,0.7-3.4c0-1.2-0.2-2.1-0.6-2.9c-0.4-0.8-1-1.4-1.7-1.8c-0.7-0.5-1.5-0.8-2.4-1C133.3,106.2,132.4,106.1,131.5,106.1
		z"/>
	<path fill="#FFFFFF" d="M149.4,119c0-6.2,1.4-11,4.1-14.4c2.7-3.4,6.7-5,11.7-5c2.7,0,5,0.5,7,1.4c2,0.9,3.6,2.2,5,3.9
		c1.3,1.7,2.3,3.8,2.9,6.1c0.6,2.4,1,5,1,8c0,6.2-1.4,11-4.1,14.4c-2.8,3.4-6.7,5-11.7,5c-2.7,0-5.1-0.5-7-1.4
		c-2-0.9-3.6-2.2-4.9-3.9c-1.3-1.7-2.3-3.8-2.9-6.1S149.4,121.9,149.4,119z M157,119c0,1.9,0.2,3.6,0.5,5.2c0.3,1.6,0.8,2.9,1.5,4.1
		c0.7,1.1,1.5,2,2.5,2.7c1,0.6,2.3,1,3.7,1c2.6,0,4.6-1,6-3c1.4-2,2.1-5.3,2.1-9.9c0-1.8-0.2-3.5-0.5-5.1c-0.3-1.6-0.8-2.9-1.4-4.1
		c-0.6-1.2-1.5-2.1-2.5-2.7c-1-0.7-2.3-1-3.8-1c-2.6,0-4.6,1-6,3.1C157.7,111.3,157,114.5,157,119z"/>
</g>
<g>
	<path fill="#FFFFFF" d="M493.2,118.3l0.8-7.4h-0.3l-2.3,6l-8,13.9h-2.3l-8.4-14l-2.3-5.9h-0.3l1.1,7.4v19.4h-6.9v-37.4h6.7l10,17.1
		l1.8,4.3h0.2l1.6-4.4l9.4-17h6.6v37.4h-7.3V118.3z"/>
	<path fill="#FFFFFF" d="M505.7,119c0-6.2,1.4-11,4.1-14.4c2.7-3.4,6.7-5,11.7-5c2.7,0,5,0.5,7,1.4c2,0.9,3.6,2.2,5,3.9
		c1.3,1.7,2.3,3.8,2.9,6.1c0.6,2.4,1,5,1,8c0,6.2-1.4,11-4.1,14.4c-2.8,3.4-6.7,5-11.7,5c-2.7,0-5.1-0.5-7-1.4
		c-2-0.9-3.6-2.2-4.9-3.9s-2.3-3.8-2.9-6.1C506,124.5,505.7,121.9,505.7,119z M513.4,119c0,1.9,0.2,3.6,0.5,5.2
		c0.3,1.6,0.8,2.9,1.5,4.1c0.7,1.1,1.5,2,2.5,2.7c1,0.6,2.3,1,3.7,1c2.6,0,4.6-1,6-3c1.4-2,2.1-5.3,2.1-9.9c0-1.8-0.2-3.5-0.5-5.1
		c-0.3-1.6-0.8-2.9-1.4-4.1c-0.6-1.2-1.5-2.1-2.5-2.7c-1-0.7-2.3-1-3.8-1c-2.6,0-4.6,1-6,3.1C514.1,111.3,513.4,114.5,513.4,119z"/>
	<path fill="#FFFFFF" d="M567.1,106.8h-10.9v30.8h-7.3v-30.8H538v-6.5h29.1V106.8z"/>
	<path fill="#FFFFFF" d="M567.6,119c0-6.2,1.4-11,4.1-14.4c2.7-3.4,6.7-5,11.7-5c2.7,0,5,0.5,7,1.4c2,0.9,3.6,2.2,5,3.9
		c1.3,1.7,2.3,3.8,2.9,6.1c0.6,2.4,1,5,1,8c0,6.2-1.4,11-4.1,14.4c-2.8,3.4-6.7,5-11.7,5c-2.7,0-5.1-0.5-7-1.4
		c-2-0.9-3.6-2.2-4.9-3.9s-2.3-3.8-2.9-6.1C567.9,124.5,567.6,121.9,567.6,119z M575.3,119c0,1.9,0.2,3.6,0.5,5.2
		c0.3,1.6,0.8,2.9,1.5,4.1c0.7,1.1,1.5,2,2.5,2.7c1,0.6,2.3,1,3.7,1c2.6,0,4.6-1,6-3c1.4-2,2.1-5.3,2.1-9.9c0-1.8-0.2-3.5-0.5-5.1
		c-0.3-1.6-0.8-2.9-1.4-4.1c-0.6-1.2-1.5-2.1-2.5-2.7c-1-0.7-2.3-1-3.8-1c-2.6,0-4.6,1-6,3.1C576,111.3,575.3,114.5,575.3,119z"/>
</g>
</svg>
